<?xml version="1.0" encoding="utf-8"?>
<!-- Generator: Adobe Illustrator 22.1.0, SVG Export Plug-In . SVG Version: 6.00 Build 0)  -->
<svg version="1.1" id="Layer_1" xmlns="http://www.w3.org/2000/svg" xmlns:xlink="http://www.w3.org/1999/xlink" x="0px" y="0px"
	 viewBox="0 0 456 456" style="enable-background:new 0 0 456 456;" xml:space="preserve">
<style type="text/css">
	.st0{display:none;}
	.st1{display:inline;}
	.st2{fill:#FFFFFF;}
	.st3{display:inline;fill:#FFFFFF;}
</style>
<g id="bg" class="st0">
	<rect class="st1" width="456" height="456"/>
</g>
<g id="icon">
	<g id="tent">
		<path class="st2" d="M232,282.4c0-15.5,0-30.4,0-45.5c0-9.4,0-18.9,0-28.2c0-1.3,0.2-2.1,1.7-2.4c36-10.1,71.4-22.2,106.6-34.9
			c0.2-0.1,0.6-0.2,0.9-0.3c0,5.5,0,11,0,16.3c0,31.3,0,62.6,0.1,93.9c0,1.9-0.6,2.5-2.2,3.1c-11.3,3.9-22.6,7.7-33.8,11.7
			c-20.8,7.2-41.5,14.6-62.1,22.2c-3.6,1.3-7.3,2.6-11.1,4c0-3.3,0-6.4,0-9.5c0-6.5,0-13.1-0.1-19.6c0-1.3,0.3-1.9,1.6-2.4
			c5-1.9,9.9-3.9,14.8-5.8c7.3-3,9.9-8.6,7.6-16.2c-0.9-3-2.6-5.8-3.8-8.7c-1.6-3.9-1.1-4.7,2.8-6.2c8.8-3.3,17.5-6.6,26.2-10
			c1.1-0.4,1.7-0.5,2.4,0.7c5.9,9.9,12.5,19.3,19.2,28.7c1.8,2.7,4,2.8,5.7,0.3c7.1-10.5,14.8-20.6,20.7-31.8
			c3.5-6.4,5.7-13,5.2-20.5c-0.8-12.3-10.9-24.1-23-26.3c-16.7-2.9-32.2,8.6-34.3,25.5c-0.6,4.7,0.2,9.2,1.6,13.5
			c0.5,1.4,0.1,1.7-1.1,2.2c-8.8,3.3-17.7,6.4-26.4,10.1c-7.5,3.2-10.2,8.6-7.1,16.5c1.3,3.2,2.8,6.2,4.1,9.3c1,2.4,0.6,3.5-1.7,4.7
			C241.7,278.5,236.9,280.4,232,282.4z"/>
		<path class="st2" d="M114.7,171.1c12,4.3,23.6,8.6,35.3,12.9c7.4,2.7,14.9,5.4,22.4,8c1.3,0.5,1.9,1,1.9,2.6
			c-0.1,22.2-0.1,44.3-0.1,66.6c0,6,2.4,10.3,8.1,12.6c7.3,2.9,14.5,5.8,21.7,8.8c6.2,2.6,12.5,4.8,18.8,7.3
			c0.8,0.3,1.3,0.6,1.3,1.7c-0.1,10.1,0,20.2,0,30.5c-4.1-1.5-8.1-2.9-12.1-4.4c-18.7-7.1-37.7-13.3-56.5-20
			c-2.1-0.8-2.7-1.7-2.7-3.9c0.1-18.5,0.1-37.1,0.1-55.6c0-5.5-2.5-9.5-7.5-11.4c-8.6-3.4-17.4-6.5-26-9.7c-4.7-1.7-4.7-1.7-4.7-6.5
			C114.7,197.4,114.7,184.4,114.7,171.1z"/>
		<path class="st2" d="M182.3,195c12.3,3.2,24.3,6.3,36.4,9.4c1.7,0.5,4.2,0.5,5,1.7c0.9,1.2,0.3,3.5,0.3,5.4c0,22.3,0,44.6,0,67
			c0,0.9,0,1.8,0,3c-3.3-1.3-6.5-2.5-9.7-3.8c-9.2-3.5-18.4-7.2-27.6-10.8c-3.7-1.5-4.5-2.7-4.5-6.7c0-21,0-42,0-62.9
			C182.3,196.6,182.3,195.9,182.3,195z"/>
		<path class="st2" d="M228,167.7c-3.5,6.4-8.1,11.8-12,17.8c-1.7,2.6-4,4.7-5.9,7.1c-0.7,0.9-1.4,0.6-2.3,0.4
			c-8.3-2.2-16.6-4.3-24.8-6.5c0.1-1.7,1.8-2.2,2.8-3.2c3.6-3.9,7.4-7.7,10.8-11.8c4.1-4.9,8.6-9.5,12.5-14.4
			c2.6-3.3,5.2-6.6,7.7-10c3.2-4.3,6.3-8.8,9.4-13.2c2-2.8,1.9-2.8,3.9,0.2c6.4,9.2,13,18.3,20.2,26.9c2.9,3.5,5.7,7,8.9,10.3
			c4.6,4.7,8.6,9.8,13.5,14.6c-3.2,0.9-6.2,1.9-9.2,2.8c-4.9,1.5-9.8,2.8-14.6,4.5c-2,0.7-2.9,0.1-4-1.3c-5.9-7.3-11.3-15.1-16.3-23
			C228.5,168.4,228.3,168.1,228,167.7z"/>
		<path class="st2" d="M144.9,293.7c-9.9-3.4-19.3-6.7-28.9-10c-0.8-0.2-1.3-0.5-1.3-1.7c0.1-19.2,0.1-38.4,0.1-57.6
			c0-0.1,0.1-0.1,0.2-0.3c5.5,2,11.1,4,16.7,6.1c3.3,1.2,6.5,2.6,9.9,3.6c2.5,0.8,3.3,2.3,3.3,4.7c-0.1,17.1,0,34.2,0,51.4
			C144.9,291.1,144.9,292.3,144.9,293.7z"/>
		<path class="st2" d="M305.6,262.8c-5.4-7.8-10.7-15.4-15.5-23.4c-2.1-3.5-3.8-7-4.7-10.9c-2.8-11,5.4-23.4,16.7-25.6
			c11.4-2.1,22.7,6.5,24.1,18.1c0.6,4.7-0.6,9.1-2.7,13.3c-4.1,8.5-9.7,16-14.8,23.9C307.7,259.7,306.7,261.1,305.6,262.8z
			 M295.2,223.4c-0.2,5.8,4.4,10.5,10.2,10.6c5.7,0.1,10.7-4.7,10.8-10.2c0.1-5.7-4.5-10.4-10.3-10.6
			C300.4,213,295.4,217.7,295.2,223.4z"/>
		<path class="st2" d="M159.2,141.1c4.3,6.2,8.4,12,12.5,17.8c3.2,4.5,6.5,8.9,9.9,13.3c0.5,0.7,1,1.1,0.2,2c-2.5,2.4-5,4.9-7.4,7.3
			c-1.2,1.2-2.4,1.3-4,0.8c-10.1-3.6-20.3-7.2-30.4-10.8c-0.3-0.2-0.7-0.3-1-0.3c-1.4-0.1-1.5-0.6-0.6-1.6c3.7-3.9,6.8-8.3,9.8-12.8
			C151.6,151.6,155.8,146.9,159.2,141.1z"/>
		<path class="st2" d="M295.8,141c7.3,10,14.2,19.8,22,29.5c-4.8,1.6-9.5,3.2-14,4.7c-6.5,2.2-12.9,4.4-19.4,6.6
			c-0.9,0.3-1.6,0.5-2.4-0.3c-2.7-2.8-5.4-5.5-8.1-8.2c-0.7-0.7-0.8-1.2-0.1-2.1C281.6,161.7,288.7,151.5,295.8,141z"/>
		<path class="st2" d="M240,106.9c-3.5,1.5-6.5,2.8-9.6,4.2c0-3,0-5.8,0-9.1C233.6,103.7,236.6,105.2,240,106.9z"/>
		<path class="st2" d="M298.9,123.9c0-2,0-3.8,0-5.8c2.1,0.9,4.2,1.3,5.9,3.2C302.8,122.2,300.9,123.1,298.9,123.9z"/>
		<path class="st2" d="M162.2,123.9c0-1.9,0-3.8,0-5.9c2.1,1.1,3.9,2.1,6,3.2C166.1,122.1,164.2,123,162.2,123.9z"/>
	</g>
	<g id="text" class="st0">
		<path class="st3" d="M256.3,325.1c-2.1,6-4.3,12-6.4,18c-0.5,1.3-0.9,2.1-2.5,2.1c-1.6-0.1-2.4-0.3-3.1-2c-2.1-6-4.3-12-6.9-18
			c0,1.5,0,2.9,0,4.4c0,4.5,0,9.1,0,13.6c0,1.3-0.2,2-1.7,1.9c-3.9-0.1-3.9,0-3.9-3.9c0-8,0.1-16,0-24.1c0-1.6,0.5-2,2-1.9
			c5.6,0.1,5.7,0,7.6,5.3c2,5.4,3.9,10.8,5.8,16.4c1-1.6,1.3-3.4,1.9-5c1.8-5,3.5-10,5.1-15.1c0.4-1.2,0.9-1.7,2.2-1.6
			c1.9,0.2,4.4-0.6,5.6,0.3c1.3,1,0.4,3.6,0.4,5.5c0.1,7.4,0,14.8,0.1,22.2c0,1.5-0.4,1.8-1.8,1.8c-3.8-0.1-3.8,0-3.8-3.8
			c0-5.4,0-10.7,0-16.1C256.5,325.1,256.4,325.1,256.3,325.1z"/>
		<path class="st3" d="M294.5,342.2c0,3.6-0.1,6.9,0,10.1c0,1.1-0.2,1.5-1.4,1.6c-4.3,0.3-4.3,0.4-4.3-4c0-8.4,0.1-16.9-0.1-25.3
			c0-1.6,0.5-2,1.8-1.7c0.4,0.1,0.7,0,1.1,0c1.6,0,3.6-0.6,2.4,3.1c3.1-3.5,6.2-4.3,9.5-3.1c4.2,1.5,5.8,5,6.2,8.9
			c0.3,2.6,0.1,5.3-0.7,7.9C307.3,345.3,299.3,348.8,294.5,342.2z M294.8,334c-0.1,1.5,0.1,3,0.8,4.4c0.8,1.6,2.1,2.4,3.9,2.5
			c1.8,0.1,3.1-0.8,3.9-2.4c1.5-3.2,1.4-6.3-0.1-9.4c-0.8-1.7-2.4-2.4-4.3-2.1c-1.8,0.2-3.1,1.1-3.7,2.9
			C294.8,331.2,294.8,332.6,294.8,334z"/>
		<path class="st3" d="M318.7,325.5c5.4-5.3,12.5-3.7,14.8,2.9c1.4,4,1.3,8-0.3,12.1c-2,4.9-9.6,8-14.3,1.6c0,3.5-0.1,6.7,0,9.8
			c0.1,1.6-0.5,2-2,1.9c-3.5-0.1-3.5,0-3.5-3.6c0-8.5,0.1-17,0-25.6c0-1.6,0.4-2.1,2-1.9c0.4,0.1,0.7,0.1,1.1,0
			C318.3,322.5,319.4,322.9,318.7,325.5z M319.3,333.8c-0.1,1.2,0,2.5,0.5,3.8c0.7,2,2,3.3,4.2,3.3c2.2,0.1,3.6-1.3,4.3-3.2
			c0.9-2.8,0.9-5.6-0.6-8.4c-0.9-1.6-2-2.3-3.6-2.4c-1.8,0-3.1,0.7-3.9,2.4C319.4,330.8,319.2,332.3,319.3,333.8z"/>
		<path class="st3" d="M83,330c0-4.3,0.1-8.8,0-13.1c0-1.3,0.2-1.8,1.7-1.8c4.8,0.1,9.6,0.1,14.4,0c1.6,0,2.1,0.6,2.1,2.1
			c0,3.2,0.1,3.2-3.1,3.2c-2.6,0-5.2,0.1-7.8,0c-1.1,0-1.3,0.3-1.3,1.4c-0.2,6.2-0.2,6.2,5.8,6.2c0.6,0,1.3,0.1,2,0
			c1.8-0.3,2.6,0.2,2.4,2.3c-0.2,2.8,0,2.9-3,2.9c-1.7,0-3.4,0.1-5.1,0c-1.7-0.1-2.4,0.2-2.2,2.1c0.2,2.8,0,5.5,0.1,8.2
			c0,1.2-0.3,1.5-1.5,1.5c-4.4,0.1-4.4,0.2-4.4-4.3C83,337.1,83,333.6,83,330L83,330z"/>
		<path class="st3" d="M122.4,338.8c-1.4,4.7-5,7.1-9.9,7c-4.8-0.1-8.7-3.1-9.9-7.7c-1.7-6,0.4-12.1,4.9-14.7
			c6.5-3.7,14.5,0.6,15.1,8c0.3,4.1,0.3,4.1-3.9,4.1c-3.2,0-6.4,0.1-9.5,0c-1.5-0.1-1.6,0.6-1.3,1.7c0.9,3.3,4.9,5,7.8,3.3
			C118.8,338.6,118.8,338.6,122.4,338.8z M112.6,331.7c0.6,0,1,0.1,1.6,0c1-0.1,2.6,0.5,2.8-0.2c0.4-1.3-0.4-2.7-1.4-3.7
			c-2.1-2-5.5-1.3-6.9,1.3c-1.3,2.3-1,2.8,1.6,2.8C110.9,331.7,111.7,331.7,112.6,331.7z"/>
		<path class="st3" d="M357.1,338.7c-1.4,4.4-4.7,6.9-9,7.1c-5,0.2-8.8-2.1-10.3-6.5c-1.4-3.9-1.5-7.9,0.6-11.8
			c2.2-4.2,6.2-6.2,11-5.4c4,0.7,7.3,4.4,7.9,8.8c0.6,4.5,0.6,4.5-3.9,4.5c-3.2,0-6.4,0.1-9.5,0c-1.2,0-1.3,0.3-1.2,1.4
			c0.6,3.5,5.3,5.8,7.9,3.4C352.5,338.3,354.6,339,357.1,338.7z M347,331.7L347,331.7c0.6,0,1.3,0.1,2,0c0.9-0.1,2.4,0.5,2.6-0.3
			c0.3-1.1-0.2-2.4-1.1-3.4c-2.1-2.4-5.7-1.8-7.2,1c-1.3,2.4-1,2.7,1.5,2.7C345.5,331.7,346.2,331.7,347,331.7z"/>
		<path class="st3" d="M279.6,342.5c-3.6,3.5-8.4,4.1-11.4,1.4c-4-3.5-2.8-9.6,2.4-11.4c2.2-0.7,4.5-0.8,6.8-1.2
			c0.7-0.2,2.1,0.5,2.1-1.2c0-1.4-0.3-2.7-1.7-3.4c-1.7-0.9-4.1-0.2-5.2,1.5c-0.5,0.8-4.7,1.5-5.4,0.9c-0.2-0.2-0.2-0.6-0.2-0.8
			c0.2-0.6,0.3-1.2,0.6-1.7c1.7-3.5,6.6-5.4,11.1-4.4c3.9,0.9,6.4,3.8,6.4,7.9c0.1,4.3,0,8.8,0.1,13.1c0,1.3-0.3,1.7-1.6,1.6
			c-0.5-0.1-1,0-1.6,0C279.6,345,279.6,345,279.6,342.5z M279.5,336c-0.2-0.6,0.5-1.7-0.9-1.3c-1.8,0.3-3.6,0.6-5.4,1.1
			c-1.3,0.3-2,1.4-1.9,2.7c0.1,1.2,0.7,2.1,2,2.6C276.5,342.4,279.4,340.1,279.5,336z"/>
		<path class="st3" d="M191.2,329.3c0.3-4.4,4.4-6.9,8-7.1c5.4-0.2,8.4,1.4,9.8,5.4c0.4,1.1,0.4,2.2,0.4,3.3c0.1,4.2,0,8.3,0.1,12.5
			c0,1.3-0.2,1.8-1.6,1.6c-0.5-0.1-0.9-0.1-1.3,0c-1.7,0.2-3.2,0.2-2.4-2.7c-2.4,2.8-5.1,3.7-8.4,3.1c-3.3-0.6-5.3-2.7-5.7-6.2
			c-0.3-3,1.3-5.5,4.3-6.6c2.5-0.9,5.2-0.9,7.9-1.3c1.3-0.2,1.6-0.8,1.3-1.9c-0.3-1.4-0.9-2.5-2.4-2.8s-3.3-0.5-4,1
			c-0.9,1.9-2.2,1.7-3.7,1.7C192.9,329.3,192.1,329.3,191.2,329.3z M204.1,336.4c-0.3-0.5,0.7-1.7-0.9-1.6c-1.7,0.2-3.3,0.5-5,0.9
			c-1.5,0.4-2.5,1.3-2.3,3c0.2,1.8,1.4,2.7,3.2,2.8C201.8,341.6,204,339.4,204.1,336.4z"/>
		<path class="st3" d="M142.9,329c-1.5,0-2.9-0.1-4.3,0c-0.9,0.1-1.1-0.6-1.4-1.1c-0.7-1.2-1.8-1.7-3.2-1.7
			c-1.6,0.1-3.1,0.6-3.2,2.4c-0.2,1.8,1.2,2.4,2.7,2.6c1.6,0.3,3.2,0.6,4.8,0.9c3.2,0.8,5.1,3,5.3,5.8c0.2,3.8-1.2,5.8-4.7,7
			c-2.8,1-5.7,1.1-8.5,0.2c-3.1-0.9-5-2.9-5.5-6.5c1.4,0,2.8,0,4.2,0c0.7,0,1.1,0.2,1.6,0.9c1.3,2,4.3,2.4,6.3,1.3
			c0.9-0.5,1.3-1.2,1.2-2.2c-0.1-0.9-0.6-1.5-1.5-1.7c-1.7-0.5-3.5-0.9-5.4-1.3c-4.3-1.2-6.1-3.1-6.1-6.5c0-3.3,2.2-5.8,6.2-6.7
			c3-0.6,6-0.6,8.7,1.5C141.7,325.2,142.7,326.8,142.9,329z"/>
		<path class="st3" d="M190.3,322.7c-2.6,7.3-5.2,14.4-7.7,21.4c-0.2,0.7-0.6,0.9-1.3,0.9c-4.6,0.5-4.8,0.3-6.3-3.9
			c-2.1-6.1-4.2-12.1-6.4-18.5c1.9,0,3.6,0.1,5.4,0c1.2-0.1,1,0.9,1.3,1.5c1.4,4.6,2.8,9.2,4.3,14c1.5-4.7,3-9.2,4.3-13.6
			c0.4-1.5,0.9-2.1,2.5-1.9C187.6,322.9,188.9,322.7,190.3,322.7z"/>
		<path class="st3" d="M147.8,334.6c0-1.8-0.1-3.7,0-5.5c0-1-0.1-1.8-1.3-1.6c-1.7,0.3-1.8-0.6-1.7-1.9c0.1-1.6-0.4-3.5,2.3-2.9
			c0.6,0.1,0.8-0.2,0.8-0.8c0-0.6,0-1.2,0-1.8c0-3.2,0-3,3.1-3.2c2.7-0.2,2.8,1.1,2.6,3.1c-0.2,1.7-0.2,3.2,2.4,2.8
			c0.8-0.2,2.2-0.5,2.4,0.2c0.4,1.2,0.2,2.6,0.2,3.9c-0.1,1-1.1,0.6-1.7,0.6c-3.3,0.1-3.3,0.1-3.3,3.4c0,2.3,0,4.6,0,6.9
			c0.1,2.8,0.7,3.4,3.5,3.2c0.5,0,1.5-0.8,1.4,0.5c-0.1,1.3,0.9,3.3-0.6,3.7c-2.1,0.5-4.3,0.6-6.5-0.2c-2.3-0.8-3.3-2.5-3.4-4.9
			C147.8,338.3,147.9,336.4,147.8,334.6C147.9,334.6,147.9,334.6,147.8,334.6z"/>
		<path class="st3" d="M213.4,329.6c0-4.7,0.1-9.3,0-14c0-1.4,0.4-1.7,1.7-1.7c4,0,4-0.1,4,3.9c0,8.4-0.1,16.7,0,25.1
			c0,1.9-0.5,2.8-2.5,2.5c-0.4-0.1-0.7-0.1-1.1,0c-1.7,0.2-2.3-0.2-2.2-2.1C213.5,338.8,213.4,334.2,213.4,329.6z"/>
		<path class="st3" d="M366.3,325.9c1.1-2.1,2.6-3.5,5-3.6c1-0.1,1.7,0.1,1.6,1.4c-0.1,0.6-0.1,1.2,0,1.8c0.3,1.9-0.2,2.7-2.4,2.6
			c-2.7-0.1-4.3,2.1-4.3,5.4c-0.1,3.2-0.1,6.5,0,9.8c0,1.3-0.2,1.8-1.7,1.7c-4.1-0.1-4.1,0.1-4.1-4c0-5.5,0.1-11-0.1-16.5
			c0-1.4,0.3-2.1,1.8-1.8c0.2,0,0.3,0,0.5,0C365.8,322.7,365.8,322.7,366.3,325.9z"/>
		<path class="st3" d="M160.9,333.8c0-3.1,0.1-6.2,0-9.3c0-1.3,0.2-1.8,1.7-1.7c4.2,0,4.2-0.1,4.2,4.1c0,5.4-0.1,10.8,0.1,16.2
			c0,1.6-0.3,2.1-2.1,2.1c-3.9-0.2-3.9,0-3.9-3.9C160.9,338.6,160.9,336.2,160.9,333.8L160.9,333.8z"/>
		<path class="st3" d="M164,313.4c2,0,3.1,1.2,3.1,3.2c0,2.1-1.3,3.4-3.2,3.4c-1.8,0-3.4-1.5-3.4-3.3
			C160.4,314.8,162,313.3,164,313.4z"/>
	</g>
</g>
</svg>
