<?xml version="1.0" encoding="utf-8"?>
<!-- Generator: Adobe Illustrator 22.1.0, SVG Export Plug-In . SVG Version: 6.00 Build 0)  -->
<svg version="1.1" xmlns="http://www.w3.org/2000/svg" xmlns:xlink="http://www.w3.org/1999/xlink" x="0px" y="0px"
	 viewBox="0 0 456 456" style="enable-background:new 0 0 456 456;" xml:space="preserve">
<style type="text/css">
	.st0{display:none;}
	.st1{display:inline;}
	.st2{fill:#FFFFFF;}
	.st3{display:inline;fill:#FFFFFF;}
</style>
<g id="Layer_2" class="st0">
	<rect class="st1" width="456" height="456"/>
</g>
<g id="Layer_3">
	<g id="tent">
		<path class="st2" d="M233.1,317.2c0-19.6,0-38.6,0-57.7c0-11.9,0-23.9,0-35.8c0-1.7,0.3-2.6,2.2-3.1
			c45.7-12.8,90.5-28.2,135.1-44.3c0.3-0.1,0.7-0.2,1.2-0.4c0,7,0,13.9,0,20.7c0,39.7,0,79.4,0.1,119.1c0,2.4-0.8,3.2-2.8,3.9
			c-14.3,4.9-28.6,9.8-42.9,14.8c-26.4,9.1-52.6,18.5-78.7,28.2c-4.6,1.7-9.2,3.3-14.1,5.1c0-4.2,0-8.1,0-12c0-8.3,0-16.6-0.1-24.8
			c0-1.6,0.4-2.4,2-3c6.3-2.4,12.5-4.9,18.7-7.4c9.3-3.8,12.6-10.9,9.6-20.6c-1.2-3.8-3.3-7.3-4.8-11c-2-4.9-1.4-6,3.5-7.9
			c11.1-4.2,22.2-8.4,33.2-12.7c1.4-0.5,2.1-0.6,3,0.9c7.5,12.5,15.9,24.5,24.3,36.4c2.3,3.4,5.1,3.6,7.2,0.4
			c9-13.3,18.7-26.1,26.3-40.3c4.4-8.1,7.2-16.5,6.6-26c-1-15.6-13.8-30.6-29.1-33.3c-21.2-3.7-40.8,10.9-43.5,32.3
			c-0.7,6,0.2,11.6,2,17.1c0.6,1.8,0.1,2.2-1.4,2.8c-11.2,4.2-22.5,8.1-33.5,12.8c-9.5,4-12.9,10.9-9,20.9c1.6,4,3.5,7.8,5.2,11.8
			c1.3,3,0.8,4.5-2.2,5.9C245.4,312.2,239.4,314.6,233.1,317.2z"/>
		<path class="st2" d="M84.4,176.1c15.2,5.5,29.9,10.9,44.8,16.3c9.4,3.4,18.9,6.8,28.4,10.1c1.7,0.6,2.4,1.3,2.4,3.3
			c-0.1,28.1-0.1,56.2-0.1,84.4c0,7.6,3.1,13.1,10.3,16c9.2,3.7,18.4,7.3,27.5,11.2c7.8,3.3,15.9,6.1,23.8,9.2
			c1,0.4,1.6,0.8,1.6,2.1c-0.1,12.8,0,25.6,0,38.7c-5.2-1.9-10.3-3.7-15.3-5.6c-23.7-9-47.8-16.9-71.6-25.3c-2.7-1-3.4-2.1-3.4-4.9
			c0.1-23.5,0.1-47,0.1-70.5c0-7-3.2-12-9.5-14.5c-10.9-4.3-22-8.3-33-12.3c-5.9-2.2-5.9-2.1-5.9-8.3
			C84.4,209.5,84.4,192.9,84.4,176.1z"/>
		<path class="st2" d="M170.1,206.4c15.6,4,30.8,8,46.1,11.9c2.2,0.6,5.3,0.6,6.4,2.1c1.1,1.5,0.4,4.5,0.4,6.8c0,28.3,0,56.6,0,84.9
			c0,1.1,0,2.3,0,3.8c-4.2-1.7-8.3-3.2-12.3-4.8c-11.7-4.5-23.3-9.1-35-13.7c-4.7-1.9-5.7-3.4-5.7-8.5c0-26.6,0-53.2,0-79.8
			C170.1,208.4,170.1,207.5,170.1,206.4z"/>
		<path class="st2" d="M228,171.8c-4.5,8.1-10.3,15-15.2,22.6c-2.1,3.3-5.1,5.9-7.5,9c-0.9,1.2-1.8,0.8-2.9,0.5
			c-10.5-2.8-21-5.5-31.5-8.2c0.1-2.2,2.3-2.8,3.6-4.1c4.6-4.9,9.4-9.7,13.7-14.9c5.2-6.2,10.9-12,15.9-18.3
			c3.3-4.2,6.6-8.4,9.8-12.7c4-5.5,8-11.1,11.9-16.7c2.5-3.6,2.4-3.6,5,0.2c8.1,11.7,16.5,23.2,25.6,34.1c3.7,4.4,7.2,8.9,11.3,13
			c5.8,5.9,10.9,12.4,17.1,18.5c-4,1.2-7.8,2.4-11.6,3.5c-6.2,1.9-12.4,3.6-18.5,5.7c-2.5,0.9-3.7,0.1-5.1-1.7
			c-7.5-9.3-14.3-19.1-20.7-29.1C228.7,172.7,228.4,172.3,228,171.8z"/>
		<path class="st2" d="M122.7,331.5c-12.5-4.3-24.5-8.5-36.6-12.7c-1-0.3-1.7-0.6-1.7-2.1c0.1-24.3,0.1-48.7,0.1-73
			c0-0.1,0.1-0.1,0.3-0.4c7,2.5,14.1,5.1,21.2,7.7c4.2,1.5,8.3,3.3,12.6,4.6c3.2,1,4.2,2.9,4.2,6c-0.1,21.7,0,43.4,0,65.1
			C122.7,328.2,122.7,329.7,122.7,331.5z"/>
		<path class="st2" d="M326.4,292.3c-6.8-9.9-13.6-19.5-19.6-29.7c-2.6-4.4-4.8-8.9-6-13.8c-3.5-13.9,6.9-29.7,21.2-32.4
			c14.5-2.7,28.8,8.2,30.5,23c0.7,6-0.8,11.5-3.4,16.8c-5.2,10.8-12.3,20.3-18.8,30.3C329.1,288.4,327.8,290.2,326.4,292.3z
			 M313.3,242.4c-0.2,7.3,5.6,13.3,12.9,13.5c7.2,0.1,13.6-5.9,13.7-12.9c0.1-7.2-5.7-13.2-13.1-13.5
			C319.8,229.2,313.5,235.2,313.3,242.4z"/>
		<path class="st2" d="M140.9,138.1c5.4,7.8,10.6,15.2,15.9,22.6c4.1,5.7,8.3,11.3,12.5,16.9c0.6,0.9,1.3,1.4,0.2,2.5
			c-3.2,3-6.3,6.2-9.4,9.3c-1.5,1.5-3,1.7-5.1,1c-12.8-4.6-25.7-9.1-38.5-13.7c-0.4-0.2-0.9-0.4-1.3-0.4c-1.8-0.1-1.9-0.8-0.8-2
			c4.7-4.9,8.6-10.5,12.4-16.2C131.2,151.4,136.5,145.4,140.9,138.1z"/>
		<path class="st2" d="M314,138c9.2,12.7,18,25.1,27.9,37.4c-6.1,2-12,4-17.8,6c-8.2,2.8-16.4,5.6-24.6,8.4c-1.2,0.4-2,0.6-3-0.4
			c-3.4-3.5-6.8-7-10.3-10.4c-0.9-0.9-1-1.5-0.1-2.6C296,164.2,305,151.3,314,138z"/>
		<path class="st2" d="M243.3,94.7c-4.4,1.9-8.3,3.6-12.2,5.3c0-3.8,0-7.4,0-11.5C235.2,90.6,239,92.5,243.3,94.7z"/>
		<path class="st2" d="M317.9,116.3c0-2.5,0-4.8,0-7.4c2.7,1.1,5.3,1.7,7.5,4.1C322.9,114.1,320.5,115.2,317.9,116.3z"/>
		<path class="st2" d="M144.7,116.2c0-2.4,0-4.8,0-7.5c2.6,1.4,4.9,2.6,7.6,4C149.6,114,147.2,115.1,144.7,116.2z"/>
	</g>
	<g id="text" class="st0">
		<path class="st3" d="M263.9,371.3c-2.7,7.6-5.5,15.2-8.1,22.8c-0.6,1.7-1.1,2.6-3.2,2.6c-2-0.1-3.1-0.4-3.9-2.5
			c-2.6-7.6-5.5-15.2-8.8-22.8c0,1.9,0,3.7,0,5.6c0,5.7,0,11.5,0,17.2c0,1.7-0.2,2.5-2.2,2.4c-5-0.1-5,0-5-5c0-10.2,0.1-20.3,0-30.5
			c0-2,0.6-2.5,2.5-2.4c7.1,0.1,7.2,0,9.6,6.7c2.5,6.8,4.9,13.7,7.4,20.8c1.3-2,1.7-4.3,2.4-6.4c2.3-6.3,4.4-12.7,6.5-19.1
			c0.5-1.5,1.2-2.1,2.8-2c2.4,0.2,5.6-0.8,7.1,0.4c1.6,1.3,0.5,4.6,0.5,7c0.1,9.4,0,18.8,0.1,28.2c0,1.9-0.5,2.3-2.3,2.3
			c-4.8-0.1-4.8,0-4.8-4.8c0-6.8,0-13.6,0-20.4C264.2,371.3,264.1,371.3,263.9,371.3z"/>
		<path class="st3" d="M312.4,393c0,4.6-0.1,8.7,0,12.8c0,1.4-0.3,1.9-1.8,2c-5.5,0.4-5.5,0.5-5.5-5.1c0-10.7,0.1-21.4-0.1-32.1
			c0-2,0.6-2.5,2.3-2.2c0.5,0.1,0.9,0,1.4,0c2,0,4.6-0.8,3,3.9c3.9-4.5,7.8-5.5,12.1-3.9c5.3,1.9,7.3,6.3,7.9,11.3
			c0.4,3.3,0.1,6.7-0.9,10C328.6,396.9,318.5,401.4,312.4,393z M312.7,382.6c-0.1,1.9,0.1,3.8,1,5.6c1,2,2.6,3.1,4.9,3.2
			c2.3,0.1,3.9-1,4.9-3.1c1.9-4,1.8-8-0.1-11.9c-1-2.1-3-3-5.4-2.7c-2.3,0.3-3.9,1.4-4.7,3.7C312.8,379.1,312.7,380.8,312.7,382.6z"
			/>
		<path class="st3" d="M343,371.8c6.9-6.7,15.8-4.7,18.8,3.7c1.8,5.1,1.6,10.2-0.4,15.3c-2.5,6.2-12.2,10.2-18.1,2
			c0,4.5-0.1,8.5,0,12.4c0.1,2-0.6,2.5-2.5,2.4c-4.5-0.1-4.5,0-4.5-4.6c0-10.8,0.1-21.6,0-32.4c0-2,0.5-2.7,2.5-2.4
			c0.5,0.1,0.9,0.1,1.4,0C342.5,368,343.9,368.5,343,371.8z M343.8,382.4c-0.1,1.5,0,3.2,0.6,4.8c0.9,2.5,2.5,4.2,5.3,4.2
			c2.8,0.1,4.6-1.6,5.4-4.1c1.1-3.6,1.2-7.1-0.7-10.6c-1.1-2-2.5-2.9-4.6-3c-2.3,0-3.9,0.9-5,3C343.9,378.5,343.7,380.4,343.8,382.4
			z"/>
		<path class="st3" d="M44.3,377.6c0-5.5,0.1-11.1,0-16.6c0-1.7,0.3-2.3,2.1-2.3c6.1,0.1,12.2,0.1,18.3,0c2,0,2.6,0.8,2.6,2.7
			c0,4.1,0.1,4.1-3.9,4.1c-3.3,0-6.6,0.1-9.9,0c-1.4,0-1.7,0.4-1.7,1.8c-0.3,7.9-0.3,7.9,7.4,7.9c0.8,0,1.7,0.1,2.5,0
			c2.3-0.4,3.3,0.3,3.1,2.9c-0.3,3.6,0,3.7-3.8,3.7c-2.2,0-4.3,0.1-6.5,0c-2.1-0.1-3,0.3-2.8,2.7c0.2,3.5,0,7,0.1,10.4
			c0,1.5-0.4,1.9-1.9,1.9c-5.6,0.1-5.6,0.2-5.6-5.5C44.3,386.6,44.3,382.1,44.3,377.6C44.3,377.6,44.3,377.6,44.3,377.6z"/>
		<path class="st3" d="M94.2,388.7c-1.8,5.9-6.3,9-12.6,8.9c-6.1-0.1-11-3.9-12.6-9.8c-2.1-7.6,0.5-15.3,6.2-18.6
			c8.2-4.7,18.4,0.7,19.1,10.2c0.4,5.2,0.4,5.2-4.9,5.2c-4,0-8.1,0.1-12.1,0c-1.9-0.1-2,0.7-1.6,2.1c1.1,4.2,6.2,6.3,9.9,4.2
			C89.6,388.5,89.6,388.5,94.2,388.7z M81.7,379.7c0.7,0,1.3,0.1,2,0c1.3-0.1,3.3,0.6,3.6-0.3c0.5-1.6-0.5-3.4-1.8-4.7
			c-2.6-2.5-7-1.7-8.8,1.6c-1.6,2.9-1.3,3.5,2,3.5C79.6,379.7,80.6,379.7,81.7,379.7z"/>
		<path class="st3" d="M391.7,388.6c-1.8,5.6-5.9,8.8-11.4,9c-6.3,0.2-11.1-2.6-13.1-8.2c-1.8-5-1.9-10,0.7-14.9
			c2.8-5.3,7.9-7.8,13.9-6.8c5.1,0.9,9.3,5.6,10,11.1c0.7,5.7,0.7,5.7-5,5.7c-4,0-8.1,0.1-12.1,0c-1.5,0-1.7,0.4-1.5,1.8
			c0.8,4.5,6.7,7.3,10,4.3C385.9,388.1,388.6,388.9,391.7,388.6z M378.9,379.7C378.9,379.7,378.9,379.7,378.9,379.7
			c0.8,0,1.7,0.1,2.5,0c1.2-0.1,3.1,0.6,3.3-0.4c0.4-1.4-0.3-3.1-1.4-4.3c-2.6-3-7.2-2.3-9.1,1.3c-1.6,3-1.3,3.4,1.9,3.4
			C377,379.7,377.9,379.7,378.9,379.7z"/>
		<path class="st3" d="M293.5,393.4c-4.6,4.5-10.7,5.2-14.5,1.8c-5.1-4.5-3.5-12.2,3-14.4c2.8-0.9,5.7-1,8.6-1.5
			c0.9-0.2,2.7,0.6,2.7-1.5c0-1.8-0.4-3.4-2.1-4.3c-2.2-1.1-5.2-0.2-6.6,1.9c-0.6,1-6,1.9-6.9,1.1c-0.2-0.2-0.3-0.7-0.3-1
			c0.2-0.7,0.4-1.5,0.7-2.1c2.1-4.4,8.4-6.9,14.1-5.6c5,1.1,8.1,4.8,8.1,10c0.1,5.5,0,11.1,0.1,16.6c0,1.6-0.4,2.2-2,2
			c-0.6-0.1-1.3,0-2,0C293.5,396.6,293.5,396.6,293.5,393.4z M293.4,385.2c-0.2-0.7,0.6-2.1-1.2-1.7c-2.3,0.4-4.6,0.8-6.8,1.4
			c-1.6,0.4-2.5,1.8-2.4,3.4c0.1,1.5,0.9,2.7,2.5,3.3C289.6,393.2,293.2,390.3,293.4,385.2z"/>
		<path class="st3" d="M181.4,376.7c0.4-5.6,5.6-8.8,10.2-9c6.9-0.3,10.6,1.8,12.4,6.8c0.5,1.4,0.5,2.8,0.5,4.2
			c0.1,5.3,0,10.5,0.1,15.8c0,1.6-0.3,2.3-2,2c-0.6-0.1-1.1-0.1-1.7,0c-2.1,0.2-4.1,0.2-3-3.4c-3,3.6-6.5,4.7-10.6,3.9
			c-4.2-0.8-6.7-3.4-7.2-7.8c-0.4-3.8,1.7-7,5.5-8.4c3.2-1.2,6.6-1.1,10-1.6c1.7-0.2,2-1,1.7-2.4c-0.4-1.8-1.2-3.2-3.1-3.6
			c-1.9-0.4-4.2-0.6-5.1,1.3c-1.1,2.4-2.8,2.2-4.7,2.2C183.6,376.7,182.6,376.7,181.4,376.7z M197.7,385.6c-0.4-0.6,0.9-2.2-1.1-2
			c-2.1,0.2-4.2,0.6-6.3,1.1c-1.9,0.5-3.2,1.6-2.9,3.8c0.3,2.3,1.8,3.4,4,3.6C194.9,392.3,197.6,389.5,197.7,385.6z"/>
		<path class="st3" d="M120.2,376.3c-1.9,0-3.7-0.1-5.4,0c-1.2,0.1-1.4-0.7-1.8-1.4c-0.9-1.5-2.3-2.2-4-2.1c-2,0.1-3.9,0.7-4.1,3
			c-0.3,2.3,1.5,3,3.4,3.3c2,0.4,4.1,0.7,6.1,1.2c4.1,1,6.5,3.8,6.7,7.3c0.2,4.8-1.5,7.3-6,8.9c-3.6,1.3-7.2,1.4-10.8,0.3
			c-3.9-1.2-6.4-3.7-7-8.2c1.8,0,3.6,0,5.3,0c0.9,0,1.4,0.2,2,1.1c1.7,2.5,5.5,3.1,8,1.6c1.1-0.6,1.7-1.5,1.5-2.8
			c-0.1-1.2-0.8-1.9-1.9-2.2c-2.2-0.6-4.5-1.1-6.8-1.7c-5.5-1.5-7.7-3.9-7.7-8.2c0-4.2,2.8-7.4,7.9-8.5c3.8-0.8,7.6-0.7,11,1.9
			C118.7,371.5,119.9,373.5,120.2,376.3z"/>
		<path class="st3" d="M180.3,368.3c-3.3,9.2-6.6,18.2-9.7,27.1c-0.3,0.9-0.8,1.1-1.6,1.2c-5.8,0.6-6.1,0.4-8-4.9
			c-2.6-7.7-5.3-15.3-8.1-23.4c2.4,0,4.6,0.1,6.8,0c1.5-0.1,1.3,1.1,1.6,1.9c1.8,5.8,3.5,11.6,5.4,17.8c1.9-6,3.8-11.6,5.4-17.3
			c0.5-1.9,1.2-2.7,3.2-2.4C176.9,368.5,178.5,368.3,180.3,368.3z"/>
		<path class="st3" d="M126.4,383.4c0-2.3-0.1-4.7,0-7c0-1.3-0.1-2.3-1.7-2c-2.1,0.4-2.3-0.8-2.2-2.4c0.1-2-0.5-4.4,2.9-3.7
			c0.7,0.1,1-0.3,1-1c0-0.8,0-1.5,0-2.3c0-4.1,0-3.8,3.9-4.1c3.4-0.3,3.6,1.4,3.3,3.9c-0.3,2.2-0.2,4.1,3,3.6c1-0.2,2.8-0.6,3.1,0.3
			c0.5,1.5,0.3,3.3,0.2,5c-0.1,1.3-1.4,0.7-2.1,0.7c-4.2,0.1-4.2,0.1-4.2,4.3c0,2.9,0,5.8,0,8.7c0.1,3.6,0.9,4.3,4.4,4.1
			c0.6,0,1.9-1,1.8,0.6c-0.1,1.6,1.1,4.2-0.8,4.7c-2.6,0.6-5.5,0.7-8.3-0.2c-2.9-1-4.2-3.2-4.3-6.2
			C126.4,388.1,126.5,385.7,126.4,383.4C126.5,383.4,126.5,383.4,126.4,383.4z"/>
		<path class="st3" d="M209.5,377c0-5.9,0.1-11.8,0-17.7c0-1.8,0.5-2.2,2.2-2.1c5.1,0,5.1-0.1,5.1,5c0,10.6-0.1,21.2,0,31.8
			c0,2.4-0.6,3.6-3.2,3.2c-0.5-0.1-0.9-0.1-1.4,0c-2.1,0.3-2.9-0.3-2.8-2.7C209.7,388.7,209.5,382.8,209.5,377z"/>
		<path class="st3" d="M403.4,372.4c1.4-2.7,3.3-4.4,6.3-4.6c1.3-0.1,2.2,0.1,2,1.8c-0.1,0.7-0.1,1.5,0,2.3c0.4,2.4-0.2,3.4-3,3.3
			c-3.4-0.1-5.4,2.7-5.5,6.9c-0.1,4.1-0.1,8.3,0,12.4c0,1.6-0.3,2.3-2.1,2.2c-5.2-0.1-5.2,0.1-5.2-5.1c0-7,0.1-13.9-0.1-20.9
			c0-1.8,0.4-2.7,2.3-2.3c0.2,0,0.4,0,0.6,0C402.8,368.3,402.8,368.3,403.4,372.4z"/>
		<path class="st3" d="M143,382.3c0-3.9,0.1-7.9,0-11.8c0-1.6,0.3-2.3,2.1-2.2c5.3,0,5.3-0.1,5.3,5.2c0,6.8-0.1,13.7,0.1,20.5
			c0,2-0.4,2.7-2.6,2.7c-4.9-0.2-4.9,0-4.9-5C143,388.5,143,385.4,143,382.3C143,382.3,143,382.3,143,382.3z"/>
		<path class="st3" d="M146.9,356.5c2.5,0,3.9,1.5,3.9,4.1c0,2.6-1.6,4.3-4.1,4.3c-2.3,0-4.3-1.9-4.3-4.2
			C142.3,358.3,144.4,356.4,146.9,356.5z"/>
	</g>
</g>
</svg>
